<?xml version="1.0" encoding="utf-8"?><svg xmlns="http://www.w3.org/2000/svg" xmlns:xlink="http://www.w3.org/1999/xlink"><symbol viewBox="0 0 18.164 13.922" id="check" xmlns="http://www.w3.org/2000/svg"><path d="M17.836 3.516L9.352 12l-1.594 1.594a1.136 1.136 0 0 1-1.594 0L4.57 12 .328 7.758a1.136 1.136 0 0 1 0-1.594L1.922 4.57a1.136 1.136 0 0 1 1.594 0l3.445 3.457L14.649.328a1.132 1.132 0 0 1 1.593 0l1.594 1.594a1.136 1.136 0 0 1 0 1.594z"/></symbol><symbol viewBox="0 0 22.012 17.295" id="envelope" xmlns="http://www.w3.org/2000/svg"><path d="M19.911 5.331c-1.916 1.327-3.845 2.653-5.748 3.992-.799.553-2.15 1.683-3.145 1.683h-.025c-.995 0-2.346-1.13-3.145-1.683-1.903-1.339-3.831-2.665-5.735-3.992C1.241 4.741 0 3.354 0 2.235 0 1.032.651 0 1.965 0h18.082c1.068 0 1.965.884 1.965 1.965 0 1.376-1.02 2.617-2.101 3.366zm2.101 9.999c0 1.08-.885 1.965-1.965 1.965H1.965A1.971 1.971 0 0 1 0 15.33V5.577c.369.405.786.762 1.241 1.069 2.039 1.388 4.103 2.776 6.104 4.237 1.032.762 2.31 1.695 3.648 1.695h.025c1.339 0 2.616-.934 3.647-1.695 2.003-1.449 4.066-2.85 6.117-4.237a7.28 7.28 0 0 0 1.229-1.069v9.753z"/></symbol><symbol viewBox="0 0 26 22" id="github" xmlns="http://www.w3.org/2000/svg"><path d="M25.047 17.422C22.984 21.594 17.313 22 13.25 22 9.125 22 3.109 21.641.969 17.422.172 15.844 0 13.984 0 12.25c0-2.281.625-4.438 2.125-6.188a8.585 8.585 0 0 1-.422-2.656c0-1.172.266-2.343.797-3.406 2.469 0 4.047 1.078 5.922 2.547A20.895 20.895 0 0 1 13.25 2c1.469 0 2.953.156 4.375.5C19.484 1.047 21.063 0 23.5 0a7.629 7.629 0 0 1 .797 3.406c0 .891-.141 1.781-.422 2.625C25.375 7.797 26 9.969 26 12.25c0 1.734-.172 3.578-.953 5.172zM18.5 10.5c-1.031 0-2.016.188-3.047.328-.812.125-1.625.172-2.453.172s-1.641-.047-2.453-.172c-1.016-.14-2.016-.328-3.047-.328-2.547 0-4 2.109-4 4.5 0 4.781 4.375 5.516 8.188 5.516h2.625c3.813 0 8.188-.734 8.188-5.516-.001-2.391-1.454-4.5-4.001-4.5zM8 18c-1.406 0-2-1.859-2-3s.594-3 2-3 2 1.859 2 3-.594 3-2 3zm10 0c-1.406 0-2-1.859-2-3s.594-3 2-3 2 1.859 2 3-.594 3-2 3z"/></symbol></svg>